# xmcd CD database file
#
# Track frame offsets:
#	150
#	18137
#	36222
#	56685
#	76175
#	90685
#	111170
#	126755
#	146617
#	164502
#	184075
#	204675
#
# Disc length: 2920 seconds
#
# Revision: 5
# Processed by: cddbd v1.5.1PL2 Copyright (c) Steve Scherf et al.
# Submitted via: CDex 1.51
#
DISCID=9f0b660c,a10b650c
DTITLE=Kim Richey - Bitter Sweet
DYEAR=1997
DGENRE=Country
TTITLE0=Every River
TTITLE1=I'm Alright
TTITLE2=Wildest Dreams
TTITLE3=Straight As The Crow Flies
TTITLE4=I Know
TTITLE5=Fallin'
TTITLE6=To Tell The Truth
TTITLE7=My Whole World
TTITLE8=The Lonesome Side Of Town
TTITLE9=Don't Let Me Down Easy
TTITLE10=Let It Roll
TTITLE11=Why Can't I Say Goodnight
EXTD=YEAR: 1997
EXTT0=
EXTT1=
EXTT2=
EXTT3=
EXTT4=
EXTT5=
EXTT6=
EXTT7=
EXTT8=
EXTT9=
EXTT10=
EXTT11=
PLAYORDER=
